<?xml version="1.0" encoding="utf-8"?>
<!-- Generator: Adobe Illustrator 26.0.3, SVG Export Plug-In . SVG Version: 6.00 Build 0)  -->
<svg version="1.1" id="Layer_1" xmlns="http://www.w3.org/2000/svg" xmlns:xlink="http://www.w3.org/1999/xlink" x="0px" y="0px"
	 viewBox="0 0 72 36" style="enable-background:new 0 0 72 36;" xml:space="preserve">
<style type="text/css">
	.st0{fill:#A6192E;}
	.st1{fill:#FFFFFF;}
</style>
<g>
	<path class="st0" d="M72,36H0V0h72V36z"/>
	<path class="st1" d="M59.05,17.92c-0.56,0.07-0.99,0.09-1.28,0.09c-0.29,0-0.72-0.04-1.3-0.11c0.09,0.86,0.11,1.17,0.13,1.87v1.12
		v1.15l0.02,5.36c0,2.14,0.07,2.59,0.58,3.44c0.32,0.52,0.77,0.99,1.33,1.37c1.06,0.74,2.21,1.01,4.3,1.01
		c1.96,0,3.17-0.29,4.25-1.06c1.58-1.1,1.91-2.09,1.91-5.74l-0.02-3.54c0-0.29,0.02-1.06,0.04-2.3c0-0.94,0.02-1.62,0.05-1.98
		c0.02-0.16,0.04-0.38,0.07-0.7c-0.52,0.05-0.9,0.09-1.15,0.09c-0.25,0-0.63-0.04-1.12-0.09c0.09,0.79,0.13,1.1,0.16,1.78
		c0.07,0.9,0.09,1.98,0.09,3.17v3.51c0,2.47-0.07,3.02-0.54,3.71c-0.18,0.25-0.49,0.52-0.9,0.76c-0.76,0.47-1.6,0.65-2.72,0.65
		c-1.6,0-3.08-0.59-3.65-1.42c-0.45-0.68-0.47-0.95-0.5-3.29v-4.59c0-0.25,0.02-0.68,0.04-1.24c0-0.56,0.02-0.92,0.02-1.06
		C58.91,19.14,58.94,18.8,59.05,17.92 M52.92,20.11c-0.04-0.47-0.07-0.83-0.07-1.08c0-0.32,0.02-0.56,0.11-1.13
		c-0.88,0.11-1.19,0.11-1.71,0.11h-2.3l-2.66-0.02l-1.53-0.05c0.09,1.78,0.11,2.5,0.16,3.63v1.21v4.95c0,1.62-0.02,2.68-0.04,3.2
		c-0.05,0.45-0.09,1.17-0.18,2.09c0.52-0.04,0.9-0.07,1.17-0.07c0.32,0,0.79,0.02,1.42,0.09c-0.16-1.96-0.16-2.3-0.16-5v-1.91h2.37
		c0.94,0,1.53,0.05,2.95,0.23c-0.04-0.47-0.07-0.83-0.07-1.08c0-0.29,0.02-0.56,0.12-1.15c-1.22,0.18-1.64,0.2-2.68,0.2h-2.66v-0.95
		v-2.63l0.02-0.9h2.41c0.61,0,1.58,0.04,2.39,0.14C52.18,20.02,52.5,20.04,52.92,20.11 M40.19,20.51c0.11-0.49,0.16-0.65,0.31-1.13
		c0.14-0.38,0.18-0.49,0.41-0.9c-0.67-0.25-0.95-0.34-1.46-0.45c-0.72-0.16-1.42-0.25-2.16-0.25c-1.6,0-2.68,0.38-3.53,1.24
		c-0.76,0.76-1.22,1.85-1.22,2.99c0,1.33,0.49,2.3,1.55,3.04c0.54,0.38,0.97,0.61,2.12,1.13c1.17,0.54,1.51,0.7,2.02,1.06
		c0.79,0.54,1.17,1.17,1.17,1.91c0,1.53-1.24,2.57-3.04,2.57c-0.79,0-1.6-0.18-2.34-0.56c-0.52-0.25-0.83-0.47-1.55-1.08
		c-0.18,1.06-0.27,1.37-0.68,2.25c1.06,0.52,1.49,0.65,2.59,0.81c0.56,0.09,1.04,0.13,1.51,0.13c2.03,0,3.53-0.65,4.5-1.91
		c0.65-0.88,0.97-1.78,0.97-2.74c0-0.72-0.18-1.44-0.52-1.96c-0.43-0.68-1.08-1.17-2.59-1.91c-2.11-1.06-2.43-1.22-2.93-1.6
		c-0.56-0.45-0.88-1.06-0.88-1.73c0-1.31,0.92-2.16,2.32-2.16c0.38,0,0.97,0.11,1.44,0.25C38.95,19.75,39.33,19.93,40.19,20.51"/>
</g>
</svg>
